<?xml version="1.0" encoding="UTF-8"?>
<svg id="Layer_1" data-name="Layer 1" xmlns="http://www.w3.org/2000/svg" viewBox="0 0 538.08 94.82">
  <defs>
    <style>
      .cls-1 {
        fill: #ffffff;
        stroke-width: 0px;
      }
    </style>
  </defs>
  <path class="cls-1" d="M26.74,94.15h-9.93l-2.73-34.46c-.55-6.68-1.09-15.76-1.75-24.04.11,8.28.22,16.56.22,24.04v34.46H0V.67h19.54l1.96,27.64c.33,5.21.65,10.95.98,16.43.22-5.47.44-11.22.87-16.43L25.43.67h19.86v93.48h-14.08v-34.46c0-7.48.11-16.16.22-24.57-.65,8.41-1.42,17.9-1.96,24.57l-2.73,34.46Z"/>
  <path class="cls-1" d="M67.67,82.8h-5.24l-.55,11.35h-12.88L55.88.67h19.86l6.88,93.48h-14.41l-.55-11.35ZM63.09,67.31h3.82c-.76-17.23-1.42-32.18-1.86-48.34-.44,16.16-1.09,31.12-1.96,48.34Z"/>
  <path class="cls-1" d="M102.16,65.97c0-5.88-1.64-8.55-6.88-15.09-6.44-8.41-9.6-13.49-9.6-26.44v-6.81c0-13.62,2.62-17.63,12.77-17.63h5.24c10.15,0,12.77,4.01,12.77,17.63v10.56l-13.43,4.39v-13.09c0-2.14-.33-2.8-1.42-2.8h-.22c-1.09,0-1.42.67-1.42,2.54v6.01c0,5.88,1.64,8.55,6.88,15.09,6.44,8.41,9.6,13.49,9.6,26.31v10.68c0,13.62-2.62,17.49-12.77,17.49h-5.24c-10.15,0-12.77-3.87-12.77-17.49v-12.52l13.42-6.44v17.09c0,2,.33,2.8,1.42,2.8h.33c.98,0,1.31-.8,1.31-2.8v-9.48Z"/>
  <path class="cls-1" d="M125.73,94.15V17.23h-6.11V.67h26.63v16.56h-6.11v76.92h-14.41Z"/>
  <path class="cls-1" d="M164.26,37.39h7.53v16.69h-7.53v23.5h9.93v16.56h-24.23V.67h24.23v16.69h-9.93v20.03Z"/>
  <path class="cls-1" d="M210.1,81.46c0,4.67.33,9.08,1.75,12.69h-14.84c-1.09-2.27-1.2-6.68-1.2-11.22v-23.1c0-2.54-.65-4.01-2.18-4.01h-.87v38.33h-14.3V.67h18.88c10.15,0,12.77,4.01,12.77,17.63v12.95c0,9.88-1.42,14.56-6,16.29,4.58,1.87,6,6.68,6,16.56v17.36ZM195.81,20.17c0-2.14-.33-2.8-1.42-2.8h-1.64v21.77h1.64c1.09,0,1.42-.67,1.42-2.8v-16.16Z"/>
  <path class="cls-1" d="M230.95,65.97c0-5.88-1.64-8.55-6.88-15.09-6.44-8.41-9.6-13.49-9.6-26.44v-6.81c0-13.62,2.62-17.63,12.77-17.63h5.24c10.15,0,12.77,4.01,12.77,17.63v10.67l-13.43,4.29v-13.09c0-2.14-.33-2.8-1.42-2.8h-.22c-1.09,0-1.42.67-1.42,2.54v6.01c0,5.88,1.64,8.55,6.88,15.09,6.44,8.41,9.6,13.49,9.6,26.31v10.68c0,13.62-2.62,17.49-12.77,17.49h-5.24c-10.15,0-12.77-3.87-12.77-17.49v-12.52l13.42-6.44v17.09c0,2,.33,2.8,1.42,2.8h.33c.98,0,1.31-.8,1.31-2.8v-9.48Z"/>
  <path class="cls-1" d="M263.47,17.63c0-13.62,2.62-17.63,12.77-17.63h6.22c10.15,0,12.77,4.01,12.77,17.63v59.7c0,13.62-2.62,17.49-12.77,17.49h-6.22c-10.15,0-12.77-3.87-12.77-17.49V17.63ZM280.83,19.5c0-2.14-.22-2.8-1.31-2.8h-.33c-1.09,0-1.31.67-1.31,2.8v55.96c0,2,.22,2.8,1.31,2.8h.33c1.09,0,1.31-.8,1.31-2.8V19.5Z"/>
  <path class="cls-1" d="M314.44,38.73h6.99v16.69h-6.99v38.73h-14.3V.67h23.58v16.69h-9.28v21.37Z"/>
  <path class="cls-1" d="M345.87,94.15V17.23h-6.11V.67h26.63v16.56h-6.11v76.92h-14.41Z"/>
  <path class="cls-1" d="M370.1,94.15V.67h14.3v36.72h3.06V.67h14.3v93.48h-14.3v-40.06h-3.06v40.06h-14.3Z"/>
  <path class="cls-1" d="M421.29,37.39h7.53v16.69h-7.53v23.5h9.93v16.56h-24.23V.67h24.23v16.69h-9.93v20.03Z"/>
  <path class="cls-1" d="M466.59,82.8h-5.24l-.55,11.35h-12.88L454.8.67h19.87l6.88,93.48h-14.41l-.55-11.35ZM462,67.31h3.82c-.76-17.23-1.42-32.18-1.86-48.34-.44,16.16-1.09,31.12-1.96,48.34Z"/>
  <path class="cls-1" d="M485.36.67h14.3v93.48h-14.3V.67Z"/>
  <path class="cls-1" d="M536.33,81.46c0,4.67.33,9.08,1.75,12.69h-14.84c-1.09-2.27-1.2-6.68-1.2-11.22v-23.1c0-2.54-.66-4.01-2.18-4.01h-.87v38.33h-14.3V.67h18.88c10.15,0,12.77,4.01,12.77,17.63v12.95c0,9.88-1.42,14.56-6,16.29,4.58,1.87,6,6.68,6,16.56v17.36ZM522.03,20.17c0-2.14-.33-2.8-1.42-2.8h-1.64v21.77h1.64c1.09,0,1.42-.67,1.42-2.8v-16.16Z"/>
</svg>